<?xml version="1.0" standalone="no"?><!DOCTYPE svg PUBLIC "-//W3C//DTD SVG 1.1//EN" "http://www.w3.org/Graphics/SVG/1.1/DTD/svg11.dtd"><svg t="1512475323996" class="icon" style="" viewBox="0 0 1024 1024" version="1.1" xmlns="http://www.w3.org/2000/svg" p-id="2848" xmlns:xlink="http://www.w3.org/1999/xlink" width="16" height="16"><defs><style type="text/css"></style></defs><path d="M796.444444 932.977778 227.555556 932.977778c-50.267022 0-91.022222-40.7552-91.022222-91.022222l0-45.488356 0-614.4C136.533333 131.777422 177.288533 91.022222 227.555556 91.022222l568.888889 0c50.267022 0 91.022222 40.7552 91.022222 91.044978l0 614.4L887.466667 841.955556C887.466667 892.222578 846.711467 932.977778 796.444444 932.977778zM739.555556 841.9328c18.8416 0 34.133333-15.291733 34.133333-34.133333s-15.291733-34.133333-34.133333-34.133333-34.133333 15.291733-34.133333 34.133333S720.713956 841.9328 739.555556 841.9328zM819.2 204.8c0-25.122133-20.366222-45.511111-45.511111-45.511111L250.311111 159.288889C225.188978 159.288889 204.8 179.677867 204.8 204.8l0 503.853511C212.127289 706.742044 219.636622 705.422222 227.555556 705.422222l568.888889 0c7.918933 0 15.451022 1.319822 22.755556 3.231289L819.2 204.8zM728.177778 318.555022l-68.266667 0 0 250.311111c0 12.583822-10.171733 22.755556-22.755556 22.755556s-22.755556-10.171733-22.755556-22.755556l0-250.311111-68.266667 0c-12.583822 0-22.755556-10.171733-22.755556-22.755556 0-12.561067 10.171733-22.755556 22.755556-22.755556l182.044444 0c12.583822 0 22.755556 10.194489 22.755556 22.755556C750.933333 308.383289 740.7616 318.555022 728.177778 318.555022zM523.377778 500.599467c0 50.267022-40.7552 91.022222-91.022222 91.022222l-113.777778 0c-12.583822 0-22.755556-10.171733-22.755556-22.755556l0-273.066667c0-12.561067 10.171733-22.755556 22.755556-22.755556l91.022222 0c50.267022 0 91.022222 40.7552 91.022222 91.022222 0 22.436978-8.442311 42.734933-21.9136 58.595556C505.355378 438.545067 523.377778 467.3536 523.377778 500.599467zM432.355556 324.858311l0-6.303289-22.755556 0-68.266667 0 0 91.022222 68.266667 0 22.755556 0 0-6.303289c13.562311-7.896178 22.755556-22.391467 22.755556-39.207822S445.917867 332.754489 432.355556 324.858311zM432.355556 455.088356l-22.755556 0-55.637333 0L341.333333 455.088356l0 91.022222 12.629333 0L432.355556 546.110578c25.122133 0 45.511111-20.388978 45.511111-45.511111S457.477689 455.088356 432.355556 455.088356z" p-id="2849" fill="#515151"></path></svg>