<?xml version="1.0" standalone="no"?><!DOCTYPE svg PUBLIC "-//W3C//DTD SVG 1.1//EN" "http://www.w3.org/Graphics/SVG/1.1/DTD/svg11.dtd"><svg t="1512475360976" class="icon" style="" viewBox="0 0 1024 1024" version="1.1" xmlns="http://www.w3.org/2000/svg" p-id="4308" xmlns:xlink="http://www.w3.org/1999/xlink" width="16" height="16"><defs><style type="text/css"></style></defs><path d="M960.068267 448.068267v-160.085334L671.982933 0H95.744a30.788267 30.788267 0 0 0-21.947733 9.147733 30.9248 30.9248 0 0 0-9.147734 21.879467v417.041067H0V896h64.068267v96.938667a31.163733 31.163733 0 0 0 31.061333 31.061333h833.194667a31.232 31.232 0 0 0 31.061333-31.095467V896H1024V448.068267h-63.931733z m-63.931734 512H128V896h768l0.136533 64.068267z m-526.097066-312.661334v29.525334H231.185067v85.333333h154.043733v28.9792H198.144v-250.2656h181.384533v29.661867H231.185067v77.550933l138.8544-0.750933z m46.523733-106.359466h39.6288l46.08 64.068266c9.4208 13.312 16.145067 23.620267 20.104533 30.993067 6.144-9.898667 12.8-19.387733 19.899734-28.5696l50.414933-66.56h36.181333l-88.200533 118.237867 95.4368 132.027733h-41.642667l-63.0784-89.4976c-3.754667-5.5296-7.406933-11.127467-10.990933-16.725333-3.822933 6.314667-7.7824 12.5952-11.946667 18.7392L445.44 791.210667h-39.867733l96.938666-130.833067-85.947733-119.364267z m421.2736 106.3936v29.4912h-139.6736v85.333333h155.204267v28.9792H665.6v-250.2656h181.384533v29.661867h-148.821333v77.550933l139.6736-0.750933z m58.299733-199.3728H128V64.068267h544.017067v223.914666h223.982933l0.136533 160.085334z" p-id="4309" fill="#515151"></path></svg>