<?xml version="1.0" standalone="no"?><!DOCTYPE svg PUBLIC "-//W3C//DTD SVG 1.1//EN" "http://www.w3.org/Graphics/SVG/1.1/DTD/svg11.dtd"><svg t="1512475497851" class="icon" style="" viewBox="0 0 1024 1024" version="1.1" xmlns="http://www.w3.org/2000/svg" p-id="8186" xmlns:xlink="http://www.w3.org/1999/xlink" width="16" height="16"><defs><style type="text/css"></style></defs><path d="M678.826259 19.446277z" p-id="8187" fill="#515151"></path><path d="M927.022161 245.125437L685.990676 4.093953c-2.046977-2.046977-4.093953-3.070465-6.652673-3.582209V0h-501.509246C130.748298 0 92.367488 38.38081 92.367488 85.461269v854.10095c0 46.568716 37.869065 84.437781 84.437781 84.437781h669.873064c46.568716 0 84.437781-37.869065 84.437781-84.437781V256.383808c0.511744-4.093953-1.023488-8.187906-4.093953-11.258371zM679.338003 583.388306v5.629185c0 1.535232 0 3.070465-0.511744 4.605697 0 1.535232 0 3.070465-0.511745 5.117442-6.14093 35.822089-35.310345 64.991504-65.503248 64.991504s-49.127436-29.169415-42.474763-64.991504c6.14093-35.822089 35.310345-64.991504 65.503249-64.991505 1.535232 0 2.558721 0.511744 3.582209 0.511745V376.643678l-185.251375 31.216392v210.326837c0 5.117441 0 10.234883-1.023488 15.352323-6.14093 35.822089-35.310345 64.991504-65.503248 64.991505-29.681159 0-49.127436-29.169415-42.474763-64.991505 6.14093-35.822089 35.310345-64.991504 65.503249-64.991504 1.535232 0 2.558721 0.511744 3.582208 0.511744V390.972514c0-9.723138 7.164418-18.422789 16.887557-19.958021l225.167416-38.38081c5.629185-1.023488 11.770115 0.511744 16.375812 4.605697 4.605697 4.093953 7.164418 9.211394 7.164418 15.352324V583.388306z m84.437781-327.516242c-46.568716 0-84.437781-37.869065-84.437781-84.437781V39.404298L896.317513 255.872064h-132.541729z" p-id="8188" fill="#515151"></path></svg>