<?xml version="1.0" standalone="no"?><!DOCTYPE svg PUBLIC "-//W3C//DTD SVG 1.1//EN" "http://www.w3.org/Graphics/SVG/1.1/DTD/svg11.dtd"><svg t="1512475536679" class="icon" style="" viewBox="0 0 1024 1024" version="1.1" xmlns="http://www.w3.org/2000/svg" p-id="10372" xmlns:xlink="http://www.w3.org/1999/xlink" width="16" height="16"><defs><style type="text/css"></style></defs><path d="M896 928 128 928c-35.328 0-64-28.608-64-64L64 160c0-35.328 28.672-64 64-64l768 0c35.392 0 64 28.672 64 64l0 704C960 899.392 931.392 928 896 928zM287.104 223.36c-52.48 0-96 42.752-96 96.192 0 52.544 43.52 95.296 96 95.296 53.056 0 96-42.752 96-95.296C383.104 266.112 340.16 223.36 287.104 223.36zM895.552 719.424l-249.344-304L476.736 621.824l59.968 72.832c7.936 10.368 7.936 26.368 0 36.032-8.384 9.984-21.824 9.984-29.696 0L432.576 640.256 432.128 640.256 432.128 639.68 307.2 487.36 127.296 707.072l0 93.696 768.192 0L895.552 719.424 895.552 719.424z" p-id="10373" fill="#515151"></path></svg>