<?xml version="1.0" standalone="no"?><!DOCTYPE svg PUBLIC "-//W3C//DTD SVG 1.1//EN" "http://www.w3.org/Graphics/SVG/1.1/DTD/svg11.dtd"><svg t="1512475570001" class="icon" style="" viewBox="0 0 1024 1024" version="1.1" xmlns="http://www.w3.org/2000/svg" p-id="12948" xmlns:xlink="http://www.w3.org/1999/xlink" width="16" height="16"><defs><style type="text/css"></style></defs><path d="M960.065444 63.221606h-37.338274v74.678087h-112.014821V63.221606H213.287651v74.678087H101.27283V63.221606H63.933017c-20.572391 0-37.339814 16.765883-37.339814 37.338274v821.457419c0 20.573931 16.767423 37.339814 37.339814 37.339814h37.339813v-37.339814h112.014821v37.339814h597.426238v-37.339814h112.014821v37.339814h37.338273c20.573931 0 37.341353-16.765883 37.341354-37.339814V100.55988c-0.00154-20.573931-16.767423-37.338274-37.342893-37.338274zM213.287651 809.999398H101.27283v-112.0179h112.014821v112.0179z m0-224.034261H101.27283v-112.016361h112.014821v112.016361z m0-224.032722H101.27283v-112.017901h112.014821v112.017901z m470.023699 173.849023L440.495543 677.410647c-3.957414 1.978707-8.29055 2.911856-12.583651 2.911855-5.152337 0-10.156848-1.379705-14.711724-4.069822-8.215098-4.967555-13.219609-13.852487-13.219609-23.336421V369.699417c0-9.52243 5.004511-18.407362 13.219609-23.374918 8.287471-5.002971 18.63218-5.451068 27.256879-1.12101l242.814267 141.589173c9.446977 4.667284 15.423134 14.114262 15.423134 24.494388 0 10.381666-5.976156 19.828644-15.383098 24.494388z m239.41582 274.21796h-112.014821v-112.0179h112.014821v112.0179z m0-224.034261h-112.014821v-112.016361h112.014821v112.016361z m0-224.032722h-112.014821v-112.017901h112.014821v112.017901z" fill="#515151" p-id="12949"></path></svg>