<?xml version="1.0" standalone="no"?><!DOCTYPE svg PUBLIC "-//W3C//DTD SVG 1.1//EN" "http://www.w3.org/Graphics/SVG/1.1/DTD/svg11.dtd"><svg t="1512475581811" class="icon" style="" viewBox="0 0 1024 1024" version="1.1" xmlns="http://www.w3.org/2000/svg" p-id="13711" xmlns:xlink="http://www.w3.org/1999/xlink" width="16" height="16"><defs><style type="text/css"></style></defs><path d="M853.23 2H399v113h141v113H399v114h141v113H399v100h141v182.438C540 760.916 522.539 781 499.063 781H300.729C277.25 781 256 760.916 256 737.438V455h143V342H256V228h143V115H256V2h-82.771C79.348 2 2 76.89 2 170.771v680.002C2 944.652 79.348 1022 173.229 1022H853.23c93.88 0 168.77-77.348 168.77-171.227V170.771C1022 76.89 947.11 2 853.23 2z" p-id="13712" fill="#515151"></path><path d="M314 612h170v113H314z" p-id="13713" fill="#515151"></path></svg>